<svg width="1067" height="1058" viewBox="0 0 1067 1058" fill="none" xmlns="http://www.w3.org/2000/svg">
<path d="M595.739 0.0435791C588.47 0.0435791 524.868 11.6054 524.868 11.6054C521.915 106.122 455.815 189.872 319.753 204.409L290.678 152.006L233.664 157.639L259.332 294.133L0.859619 283.002L28.5717 377.269C307.033 466.993 294.313 723.67 233.664 953.09C340.424 1073.48 555.761 1061.67 656.16 1050.99C663.202 909.705 775.186 904.481 964.855 977.849C990.523 937.871 1007.56 896.076 1066.16 862.685L960.312 545.813L897.846 559.896C922.832 511.968 970.988 446.549 1012.33 415.884L1047.76 218.492C846.511 204.182 715.219 113.186 595.739 0.0435791Z" fill="white" fill-opacity="0.08"/>
</svg>
