<svg width="24" height="24" viewBox="0 0 24 24" fill="none" xmlns="http://www.w3.org/2000/svg">
<g clip-path="url(#clip0_1205_10)">
<path d="M12 0C10.4241 0 8.86371 0.308155 7.4078 0.90687C5.95189 1.50558 4.62902 2.38314 3.51472 3.48942C1.26428 5.72365 0 8.75393 0 11.9136C0 17.1794 3.444 21.647 8.208 23.2315C8.808 23.3269 9 22.9575 9 22.6359V20.6225C5.676 21.3373 4.968 19.026 4.968 19.026C4.416 17.6441 3.636 17.2747 3.636 17.2747C2.544 16.5361 3.72 16.5599 3.72 16.5599C4.92 16.6433 5.556 17.787 5.556 17.787C6.6 19.5979 8.364 19.0618 9.048 18.7759C9.156 18.0015 9.468 17.4773 9.804 17.1794C7.14 16.8816 4.344 15.857 4.344 11.3179C4.344 9.99552 4.8 8.93521 5.58 8.08934C5.46 7.7915 5.04 6.55249 5.7 4.94415C5.7 4.94415 6.708 4.62248 9 6.15934C9.948 5.89724 10.98 5.76619 12 5.76619C13.02 5.76619 14.052 5.89724 15 6.15934C17.292 4.62248 18.3 4.94415 18.3 4.94415C18.96 6.55249 18.54 7.7915 18.42 8.08934C19.2 8.93521 19.656 9.99552 19.656 11.3179C19.656 15.8689 16.848 16.8697 14.172 17.1675C14.604 17.5368 15 18.2636 15 19.3715V22.6359C15 22.9575 15.192 23.3388 15.804 23.2315C20.568 21.6351 24 17.1794 24 11.9136C24 10.3491 23.6896 8.7999 23.0866 7.35447C22.4835 5.90904 21.5996 4.5957 20.4853 3.48942C19.371 2.38314 18.0481 1.50558 16.5922 0.90687C15.1363 0.308155 13.5759 0 12 0Z" fill="white"/>
</g>
<defs>
<clipPath id="clip0_1205_10">
<rect width="24" height="24" fill="white"/>
</clipPath>
</defs>
</svg>
